<svg width="36" height="36" viewBox="0 0 36 36" fill="none" xmlns="http://www.w3.org/2000/svg">
<g clip-path="url(#clip0_2_639)">
<path d="M23.29 5.28913C19.9186 3.88637 16.1281 3.88033 12.7523 5.27234C9.37648 6.66435 6.69189 9.34039 5.28913 12.7118C3.88636 16.0831 3.88032 19.8736 5.27233 23.2495C6.66434 26.6253 9.34038 29.3099 12.7117 30.7126C16.0831 32.1154 19.8736 32.1214 23.2495 30.7294C26.6253 29.3374 29.3099 26.6614 30.7126 23.29C32.1154 19.9187 32.1214 16.1281 30.7294 12.7523C29.3374 9.37648 26.6614 6.6919 23.29 5.28913ZM17.0953 11.8954C18.0678 12.362 18.8879 13.2114 19.3454 14.3229L19.4371 14.5492L19.6614 14.4567C21.8846 13.5383 24.4129 14.4067 25.2691 16.4871C26.1263 18.5679 24.9468 20.9724 22.7222 21.8914L22.0119 22.1843L15.5568 24.8509C15.4272 24.9041 15.2817 24.9037 15.1523 24.8499C15.0229 24.796 14.9201 24.6931 14.8665 24.5636L12.2062 18.1043L11.9133 17.394C10.9976 15.1672 11.8709 12.6353 13.9492 11.7759C14.9881 11.3467 16.1234 11.4302 17.0944 11.895L17.0953 11.8954Z" fill="#736CD3"/>
</g>
<defs>
<clipPath id="clip0_2_639">
<rect width="27.5364" height="27.5364" fill="white" transform="translate(10.5783) rotate(22.5913)"/>
</clipPath>
</defs>
</svg>
