<svg width="133" height="133" viewBox="0 0 133 133" fill="none" xmlns="http://www.w3.org/2000/svg">
<path d="M66.483 66.4826C66.483 66.4826 81.2388 55.4158 81.2388 36.971C81.2388 18.5262 66.483 5 66.483 5C66.483 5 52.9568 22.2151 52.9568 36.971C52.9568 51.7268 66.483 66.4826 66.483 66.4826ZM66.483 66.4826C66.483 66.4826 55.4158 51.7265 36.971 51.7265C18.5262 51.7265 5 66.4823 5 66.4823C5 66.4823 22.2151 80.0085 36.971 80.0085C51.7268 80.0085 66.483 66.4826 66.483 66.4826ZM66.6412 128C66.6412 128 51.8504 114.512 51.8027 96.0673C51.7551 77.6226 66.4822 66.5176 66.4822 66.5176C66.4822 66.5176 80.0465 81.2384 80.0847 95.9942C80.1228 110.75 66.6412 128 66.6412 128ZM29.7263 103.246C29.7263 103.246 30.2936 87.6495 41.3144 76.6287C52.3352 65.608 66.4623 66.5101 66.4623 66.5101C66.4623 66.5101 64.5341 82.2152 55.7175 91.0318C46.9008 99.8485 29.7263 103.246 29.7263 103.246ZM103.137 29.6719C103.137 29.6719 102.61 45.2634 91.6135 56.3085C80.617 67.3535 66.4817 66.4887 66.4817 66.4887C66.4817 66.4887 68.3696 50.7852 77.1668 41.9491C85.9639 33.1131 103.137 29.6719 103.137 29.6719ZM103.246 103.249C103.246 103.249 87.6495 102.681 76.6287 91.6605C65.608 80.6397 66.5101 66.5125 66.5101 66.5125C66.5101 66.5125 82.2152 68.4407 91.0318 77.2574C99.8485 86.074 103.246 103.249 103.246 103.249ZM29.6719 29.8382C29.6719 29.8382 45.2634 30.3649 56.3085 41.3614C67.3535 52.3578 66.4887 66.4932 66.4887 66.4932C66.4887 66.4932 50.7852 64.6053 41.9491 55.8081C33.1131 47.0109 29.6719 29.8382 29.6719 29.8382ZM128 66.3241C128 66.3241 114.512 81.1148 96.0673 81.1625C77.6226 81.2102 66.5176 66.483 66.5176 66.483C66.5176 66.483 81.2384 52.9187 95.9942 52.8806C110.75 52.8424 128 66.3241 128 66.3241Z" stroke="#736CD3" stroke-width="6"/>
</svg>
